<?xml version="1.0" encoding="iso-8859-1"?>
<!-- Generator: Adobe Illustrator 19.0.0, SVG Export Plug-In . SVG Version: 6.00 Build 0)  -->
<svg version="1.1" id="Layer_1" xmlns="http://www.w3.org/2000/svg" xmlns:xlink="http://www.w3.org/1999/xlink" x="0px" y="0px"
	 viewBox="0 0 512 512" style="enable-background:new 0 0 512 512;" xml:space="preserve">
<rect x="0.007" y="141.37" style="fill:#E6E6E6;" width="429.763" height="318.125"/>
<rect x="27.509" y="141.37" style="fill:#CCCCCC;" width="402.258" height="287.305"/>
<rect x="0.007" y="141.37" style="fill:#61BCE0;" width="429.763" height="47.968"/>
<polygon style="fill:#FCD8A9;" points="429.767,141.369 429.767,189.341 238.778,189.341 252.231,141.369 "/>
<rect y="184.643" style="fill:#CCCCCC;" width="429.763" height="9.389"/>
<rect x="26.537" y="141.37" style="fill:#41A1BF;" width="40.488" height="43.273"/>
<circle style="fill:#F9C573;" cx="26.284" cy="166.395" r="7.822"/>
<circle style="fill:#61BCE0;" cx="76.862" cy="166.395" r="7.822"/>
<circle style="fill:#F2F2F2;" cx="51.573" cy="166.395" r="7.822"/>
<rect x="41.037" y="97.036" style="fill:#E6E6E6;" width="429.75" height="318.125"/>
<rect x="68.529" y="97.036" style="fill:#CCCCCC;" width="402.258" height="287.305"/>
<rect x="41.031" y="97.036" style="fill:#F94B54;" width="429.763" height="47.968"/>
<polygon style="fill:#FCD8A9;" points="470.792,97.029 470.792,145 279.804,145 293.257,97.029 "/>
<rect x="68.529" y="97.036" style="fill:#D3394F;" width="40.488" height="43.273"/>
<rect x="41.026" y="140.309" style="fill:#CCCCCC;" width="429.763" height="9.389"/>
<circle style="fill:#F2F2F2;" cx="67.309" cy="122.047" r="7.822"/>
<circle style="fill:#61BCE0;" cx="117.885" cy="122.047" r="7.822"/>
<circle style="fill:#F2F2F2;" cx="92.598" cy="122.047" r="7.822"/>
<rect x="82.237" y="52.505" style="fill:#E6E6E6;" width="429.763" height="318.125"/>
<polygon style="fill:#F2F2F2;" points="512,52.505 512,370.627 245.269,370.627 334.464,52.505 "/>
<rect x="82.237" y="52.505" style="fill:#F9C573;" width="429.763" height="47.968"/>
<polygon style="fill:#FCD8A9;" points="512,52.505 512,100.477 321.011,100.477 334.464,52.505 "/>
<rect x="82.237" y="95.776" style="fill:#CCCCCC;" width="429.763" height="9.389"/>
<circle style="fill:#F94B54;" cx="108.522" cy="77.527" r="7.822"/>
<circle style="fill:#61BCE0;" cx="159.089" cy="77.527" r="7.822"/>
<circle style="fill:#F2F2F2;" cx="133.799" cy="77.527" r="7.822"/>
<g>
</g>
<g>
</g>
<g>
</g>
<g>
</g>
<g>
</g>
<g>
</g>
<g>
</g>
<g>
</g>
<g>
</g>
<g>
</g>
<g>
</g>
<g>
</g>
<g>
</g>
<g>
</g>
<g>
</g>
</svg>
